{
    "asset" : {
        "generator" : "Khronos glTF Blender I/O v1.4.40",
        "version" : "2.0"
    },
    "scene" : 0,
    "scenes" : [
        {
            "name" : "Scene",
            "nodes" : [
                0,
                1,
                2
            ]
        }
    ],
    "nodes" : [
        {
            "mesh" : 0,
            "name" : "180422_Basketball_Jewel_Drape_Animation_Turntable_WANR",
            "rotation" : [
                0.7071068286895752,
                0,
                0,
                0.7071067094802856
            ],
            "scale" : [
                0.10000000149011612,
                0.10000000149011612,
                0.10000000149011612
            ],
            "translation" : [
                0,
                -22,
                0
            ]
        },
        {
            "mesh" : 1,
            "name" : "180422_Basketball_Jewel_Drape_Animation_Turntable_WANR001",
            "rotation" : [
                0.7071068286895752,
                0,
                0,
                0.7071067094802856
            ],
            "scale" : [
                0.10000000149011612,
                0.10000000149011612,
                0.10000000149011612
            ],
            "translation" : [
                0,
                -22,
                0
            ]
        },
        {
            "mesh" : 2,
            "name" : "180422_Basketball_Jewel_Drape_Animation_Turntable_WANR002",
            "rotation" : [
                0.7071068286895752,
                0,
                0,
                0.7071067094802856
            ],
            "scale" : [
                0.10000000149011612,
                0.10000000149011612,
                0.10000000149011612
            ],
            "translation" : [
                0,
                -22,
                0
            ]
        }
    ],
    "materials" : [
        {
            "doubleSided" : true,
            "name" : "diffuse_Black",
            "pbrMetallicRoughness" : {
                "baseColorFactor" : [
                    0,
                    0,
                    0,
                    1
                ],
                "metallicFactor" : 0
            }
        }
    ],
    "meshes" : [
        {
            "name" : "180422_Basketball_Jewel_Drape_Animation_Turntable_WANR",
            "primitives" : [
                {
                    "attributes" : {
                        "POSITION" : 0,
                        "NORMAL" : 1,
                        "TEXCOORD_0" : 2
                    },
                    "indices" : 3,
                    "material" : 0
                }
            ]
        },
        {
            "name" : "180422_Basketball_Jewel_Drape_Animation_Turntable_WANR001",
            "primitives" : [
                {
                    "attributes" : {
                        "POSITION" : 4,
                        "NORMAL" : 5,
                        "TEXCOORD_0" : 6
                    },
                    "indices" : 7,
                    "material" : 0
                }
            ]
        },
        {
            "name" : "180422_Basketball_Jewel_Drape_Animation_Turntable_WANR002",
            "primitives" : [
                {
                    "attributes" : {
                        "POSITION" : 8,
                        "NORMAL" : 9,
                        "TEXCOORD_0" : 10
                    },
                    "indices" : 11,
                    "material" : 0
                }
            ]
        }
    ],
    "accessors" : [
        {
            "bufferView" : 0,
            "componentType" : 5126,
            "count" : 26772,
            "max" : [
                281.8875732421875,
                215.48062133789062,
                58.096839904785156
            ],
            "min" : [
                -275.07763671875,
                -260.76776123046875,
                -166.3549346923828
            ],
            "type" : "VEC3"
        },
        {
            "bufferView" : 1,
            "componentType" : 5126,
            "count" : 26772,
            "type" : "VEC3"
        },
        {
            "bufferView" : 2,
            "componentType" : 5126,
            "count" : 26772,
            "type" : "VEC2"
        },
        {
            "bufferView" : 3,
            "componentType" : 5123,
            "count" : 156783,
            "type" : "SCALAR"
        },
        {
            "bufferView" : 4,
            "componentType" : 5126,
            "count" : 12805,
            "max" : [
                386.3077392578125,
                32.8228759765625,
                58.09697723388672
            ],
            "min" : [
                -284.7210388183594,
                -418.3345947265625,
                -166.28228759765625
            ],
            "type" : "VEC3"
        },
        {
            "bufferView" : 5,
            "componentType" : 5126,
            "count" : 12805,
            "type" : "VEC3"
        },
        {
            "bufferView" : 6,
            "componentType" : 5126,
            "count" : 12805,
            "type" : "VEC2"
        },
        {
            "bufferView" : 7,
            "componentType" : 5123,
            "count" : 72942,
            "type" : "SCALAR"
        },
        {
            "bufferView" : 8,
            "componentType" : 5126,
            "count" : 11285,
            "max" : [
                176.4459686279297,
                418.04913330078125,
                58.09697723388672
            ],
            "min" : [
                -396.7733459472656,
                -59.112335205078125,
                -166.32586669921875
            ],
            "type" : "VEC3"
        },
        {
            "bufferView" : 9,
            "componentType" : 5126,
            "count" : 11285,
            "type" : "VEC3"
        },
        {
            "bufferView" : 10,
            "componentType" : 5126,
            "count" : 11285,
            "type" : "VEC2"
        },
        {
            "bufferView" : 11,
            "componentType" : 5123,
            "count" : 64974,
            "type" : "SCALAR"
        }
    ],
    "bufferViews" : [
        {
            "buffer" : 0,
            "byteLength" : 321264,
            "byteOffset" : 0
        },
        {
            "buffer" : 0,
            "byteLength" : 321264,
            "byteOffset" : 321264
        },
        {
            "buffer" : 0,
            "byteLength" : 214176,
            "byteOffset" : 642528
        },
        {
            "buffer" : 0,
            "byteLength" : 313566,
            "byteOffset" : 856704
        },
        {
            "buffer" : 0,
            "byteLength" : 153660,
            "byteOffset" : 1170272
        },
        {
            "buffer" : 0,
            "byteLength" : 153660,
            "byteOffset" : 1323932
        },
        {
            "buffer" : 0,
            "byteLength" : 102440,
            "byteOffset" : 1477592
        },
        {
            "buffer" : 0,
            "byteLength" : 145884,
            "byteOffset" : 1580032
        },
        {
            "buffer" : 0,
            "byteLength" : 135420,
            "byteOffset" : 1725916
        },
        {
            "buffer" : 0,
            "byteLength" : 135420,
            "byteOffset" : 1861336
        },
        {
            "buffer" : 0,
            "byteLength" : 90280,
            "byteOffset" : 1996756
        },
        {
            "buffer" : 0,
            "byteLength" : 129948,
            "byteOffset" : 2087036
        }
    ],
    "buffers" : [
        {
            "byteLength" : 2216984,
            "uri" : "data:application/octet-stream;base64,"
        }
    ]
}
